# Blender v2.79 (sub 0) OBJ File: 'bulletmats.blend'
# www.blender.org
mtllib bullet.mtl
o Cylinder_Cylinder.001
v -0.000000 -0.130198 0.551886
v -0.000000 0.010468 -0.703926
v -0.106066 -0.086264 0.551886
v -0.006600 0.013202 -0.703926
v -0.150000 0.019802 0.551886
v -0.009334 0.019802 -0.703926
v -0.106066 0.125868 0.551886
v -0.006600 0.026402 -0.703926
v -0.000000 0.169802 0.551886
v -0.000000 0.029136 -0.703926
v 0.106066 0.125868 0.551886
v 0.006600 0.026402 -0.703926
v 0.150000 0.019802 0.551886
v 0.009334 0.019802 -0.703926
v 0.106066 -0.086264 0.551886
v 0.006600 0.013202 -0.703926
v -0.106066 -0.086264 -0.451986
v -0.000000 -0.130198 -0.451986
v -0.150000 0.019802 -0.451986
v -0.106066 0.125868 -0.451986
v -0.000000 0.169802 -0.451986
v 0.106066 0.125868 -0.451986
v 0.150000 0.019802 -0.451986
v 0.106066 -0.086264 -0.451986
v -0.088480 -0.068678 -0.511055
v -0.000000 -0.105328 -0.511055
v -0.125130 0.019802 -0.511055
v -0.088480 0.108282 -0.511055
v -0.000000 0.144932 -0.511055
v 0.088480 0.108282 -0.511055
v 0.125130 0.019802 -0.511055
v 0.088480 -0.068678 -0.511055
v -0.072434 -0.052632 -0.549718
v -0.000000 -0.082635 -0.549718
v -0.102437 0.019802 -0.549718
v -0.072434 0.092236 -0.549718
v -0.000000 0.122239 -0.549718
v 0.072434 0.092236 -0.549718
v 0.102437 0.019802 -0.549718
v 0.072434 -0.052632 -0.549718
v -0.052150 -0.032348 -0.595640
v -0.000000 -0.053950 -0.595640
v -0.073752 0.019802 -0.595640
v -0.052150 0.071952 -0.595640
v -0.000000 0.093554 -0.595640
v 0.052150 0.071952 -0.595640
v 0.073752 0.019802 -0.595640
v 0.052150 -0.032348 -0.595640
v -0.019761 0.000041 -0.676759
v -0.000000 -0.008144 -0.676759
v -0.027946 0.019802 -0.676759
v -0.019761 0.039563 -0.676759
v -0.000000 0.047748 -0.676759
v 0.019761 0.039563 -0.676759
v 0.027946 0.019802 -0.676759
v 0.019761 0.000041 -0.676759
vt 0.087440 0.024940
vt 0.912560 0.850060
vt 0.087440 0.850060
vt 0.087440 0.024940
vt 0.912560 0.850060
vt 0.087440 0.850060
vt 0.087440 0.024940
vt 0.912560 0.850060
vt 0.087440 0.850060
vt 0.087440 0.024940
vt 0.912560 0.850060
vt 0.087440 0.850060
vt 0.087440 0.024940
vt 0.912560 0.850060
vt 0.087440 0.850060
vt 0.087440 0.024940
vt 0.912560 0.850060
vt 0.087440 0.850060
vt 0.504695 0.964056
vt 0.495305 0.964056
vt 0.504695 0.973445
vt 0.087440 0.850060
vt 0.912560 0.024940
vt 0.912560 0.850060
vt 0.087440 0.024940
vt 0.912560 0.850060
vt 0.087440 0.850060
vt 0.330187 0.669813
vt 0.740152 0.500000
vt 0.669813 0.330187
vt 0.927386 0.072614
vt 0.072614 0.927386
vt 0.072614 0.072614
vt 0.927386 0.072614
vt 0.072614 0.927386
vt 0.072614 0.072614
vt 0.927386 0.072614
vt 0.072614 0.927386
vt 0.072614 0.072614
vt 0.072614 0.072614
vt 0.927386 0.927386
vt 0.072614 0.927386
vt 0.927386 0.072614
vt 0.072614 0.927386
vt 0.072614 0.072614
vt 0.927386 0.072614
vt 0.072614 0.927386
vt 0.072614 0.072614
vt 0.927386 0.072614
vt 0.072614 0.927386
vt 0.072614 0.072614
vt 0.927386 0.072614
vt 0.072614 0.927386
vt 0.072614 0.072614
vt 0.072614 0.072614
vt 0.927386 0.927386
vt 0.072614 0.927386
vt 0.927386 0.072614
vt 0.072614 0.927386
vt 0.072614 0.072614
vt 0.927386 0.072614
vt 0.072614 0.927386
vt 0.072614 0.072614
vt 0.927386 0.072614
vt 0.072614 0.927386
vt 0.072614 0.072614
vt 0.072614 0.072614
vt 0.927386 0.927386
vt 0.072614 0.927386
vt 0.927386 0.072614
vt 0.072614 0.927386
vt 0.072614 0.072614
vt 0.927386 0.072614
vt 0.072614 0.927386
vt 0.072614 0.072614
vt 0.927386 0.072614
vt 0.072614 0.927386
vt 0.072614 0.072614
vt 0.927386 0.072614
vt 0.072614 0.927386
vt 0.072614 0.072614
vt 0.927386 0.072614
vt 0.072614 0.927386
vt 0.072614 0.072614
vt 0.927386 0.072614
vt 0.072614 0.927386
vt 0.072614 0.072614
vt 0.927386 0.072614
vt 0.072614 0.927386
vt 0.072614 0.072614
vt 0.927386 0.072614
vt 0.072614 0.927386
vt 0.072614 0.072614
vt 0.072614 0.072614
vt 0.927386 0.927386
vt 0.072614 0.927386
vt 0.927386 0.072614
vt 0.072614 0.927386
vt 0.072614 0.072614
vt 0.927386 0.072614
vt 0.072614 0.927386
vt 0.072614 0.072614
vt 0.927386 0.072614
vt 0.072614 0.927386
vt 0.072614 0.072614
vt 0.072614 0.072614
vt 0.927386 0.927386
vt 0.072614 0.927386
vt 0.072614 0.072614
vt 0.927386 0.927386
vt 0.072614 0.927386
vt 0.927386 0.072614
vt 0.072614 0.927386
vt 0.072614 0.072614
vt 0.072614 0.072614
vt 0.927386 0.927386
vt 0.072614 0.927386
vt 0.072614 0.072614
vt 0.927386 0.927386
vt 0.072614 0.927386
vt 0.072614 0.072614
vt 0.927386 0.927386
vt 0.072614 0.927386
vt 0.927386 0.072614
vt 0.072614 0.927386
vt 0.072614 0.072614
vt 0.522318 0.946432
vt 0.477682 0.991068
vt 0.477682 0.946432
vt 0.522318 0.946432
vt 0.477682 0.991068
vt 0.477682 0.946432
vt 0.522318 0.946432
vt 0.477682 0.991068
vt 0.477682 0.946432
vt 0.522318 0.946432
vt 0.477682 0.991068
vt 0.477682 0.946432
vt 0.477682 0.946432
vt 0.522318 0.991068
vt 0.477682 0.991068
vt 0.522318 0.946432
vt 0.477682 0.991068
vt 0.477682 0.946432
vt 0.522318 0.946432
vt 0.477682 0.991068
vt 0.477682 0.946432
vt 0.477682 0.946432
vt 0.522318 0.991068
vt 0.477682 0.991068
vt 0.912560 0.024940
vt 0.912560 0.024940
vt 0.912560 0.024940
vt 0.912560 0.024940
vt 0.912560 0.024940
vt 0.912560 0.024940
vt 0.495305 0.973445
vt 0.500000 0.975389
vt 0.506639 0.968750
vt 0.500000 0.962111
vt 0.493361 0.968750
vt 0.087440 0.024940
vt 0.912560 0.024940
vt 0.500000 0.259848
vt 0.330187 0.330187
vt 0.259848 0.500000
vt 0.500000 0.740152
vt 0.669813 0.669813
vt 0.927386 0.927386
vt 0.927386 0.927386
vt 0.927386 0.927386
vt 0.927386 0.072614
vt 0.927386 0.927386
vt 0.927386 0.927386
vt 0.927386 0.927386
vt 0.927386 0.927386
vt 0.927386 0.072614
vt 0.927386 0.927386
vt 0.927386 0.927386
vt 0.927386 0.927386
vt 0.927386 0.072614
vt 0.927386 0.927386
vt 0.927386 0.927386
vt 0.927386 0.927386
vt 0.927386 0.927386
vt 0.927386 0.927386
vt 0.927386 0.927386
vt 0.927386 0.927386
vt 0.927386 0.927386
vt 0.927386 0.072614
vt 0.927386 0.927386
vt 0.927386 0.927386
vt 0.927386 0.927386
vt 0.927386 0.072614
vt 0.927386 0.072614
vt 0.927386 0.927386
vt 0.927386 0.072614
vt 0.927386 0.072614
vt 0.927386 0.072614
vt 0.927386 0.927386
vt 0.522318 0.991068
vt 0.522318 0.991068
vt 0.522318 0.991068
vt 0.522318 0.991068
vt 0.522318 0.946432
vt 0.522318 0.991068
vt 0.522318 0.991068
vt 0.522318 0.946432
vn 0.0000 0.9819 0.1892
vn 0.5490 0.5490 -0.6302
vn 0.0000 0.7764 -0.6302
vn 0.6943 0.6943 0.1892
vn 0.7764 0.0000 -0.6302
vn 0.9819 0.0000 0.1892
vn 0.5490 -0.5490 -0.6302
vn 0.6943 -0.6943 0.1892
vn 0.0000 -0.7764 -0.6302
vn 0.0000 -0.9819 0.1892
vn -0.5490 -0.5490 -0.6302
vn -0.6943 -0.6943 0.1892
vn -0.7764 0.0000 -0.6302
vn -0.5474 0.0000 0.8368
vn 0.0000 -0.5474 0.8368
vn 0.0000 0.5474 0.8368
vn -0.6943 0.6943 0.1892
vn -0.5490 0.5490 -0.6302
vn 0.6344 0.6344 0.4417
vn 0.0000 0.8971 0.4417
vn 0.8971 0.0000 0.4417
vn 0.6344 -0.6344 0.4417
vn -0.6344 -0.6344 0.4417
vn 0.0000 -0.8971 0.4417
vn -0.8971 0.0000 0.4417
vn -0.6344 0.6344 0.4417
vn -0.9819 0.0000 0.1892
vn 0.0000 0.8563 0.5165
vn 0.8563 0.0000 0.5165
vn 0.6055 0.6055 0.5165
vn 0.6055 -0.6055 0.5165
vn 0.0000 -0.8563 0.5165
vn -0.8563 0.0000 0.5165
vn -0.6055 -0.6055 0.5165
vn -0.6055 0.6055 0.5165
vn 0.6068 0.6068 0.5133
vn 0.0000 0.8582 0.5133
vn 0.8582 0.0000 0.5133
vn 0.6068 -0.6068 0.5133
vn 0.0000 -0.8582 0.5133
vn -0.6068 -0.6068 0.5133
vn -0.6068 0.6068 0.5133
vn -0.8582 0.0000 0.5133
vn 0.6021 0.6021 0.5242
vn 0.0000 0.8516 0.5242
vn 0.8516 0.0000 0.5242
vn 0.0000 -0.8516 0.5242
vn 0.6021 -0.6021 0.5242
vn -0.6021 -0.6021 0.5242
vn -0.8516 0.0000 0.5242
vn -0.6021 0.6021 0.5242
vn 0.3871 0.3871 0.8368
vn 0.5474 0.0000 0.8368
vn 0.3871 -0.3871 0.8368
vn -0.3871 -0.3871 0.8368
vn -0.3871 0.3871 0.8368
usemtl None
s 1
f 18/1/1 3/2/2 1/3/3
f 17/4/4 5/5/5 3/6/2
f 19/7/6 7/8/7 5/9/5
f 20/10/8 9/11/9 7/12/7
f 21/13/10 11/14/11 9/15/9
f 22/16/12 13/17/13 11/18/11
f 14/19/14 10/20/15 2/21/16
f 13/22/13 24/23/17 15/24/18
f 24/25/17 1/26/3 15/27/18
f 7/28/7 13/29/13 15/30/18
f 25/31/19 18/32/1 26/33/20
f 27/34/21 17/35/4 25/36/19
f 28/37/22 19/38/6 27/39/21
f 28/40/22 21/41/10 20/42/8
f 30/43/23 21/44/10 29/45/24
f 31/46/25 22/47/12 30/48/23
f 32/49/26 23/50/27 31/51/25
f 26/52/20 24/53/17 32/54/26
f 34/55/28 25/56/19 26/57/20
f 35/58/29 25/59/19 33/60/30
f 36/61/31 27/62/21 35/63/29
f 37/64/32 28/65/22 36/66/31
f 37/67/32 30/68/23 29/69/24
f 39/70/33 30/71/23 38/72/34
f 40/73/35 31/74/25 39/75/33
f 34/76/28 32/77/26 40/78/35
f 41/79/36 34/80/28 42/81/37
f 43/82/38 33/83/30 41/84/36
f 44/85/39 35/86/29 43/87/38
f 45/88/40 36/89/31 44/90/39
f 46/91/41 37/92/32 45/93/40
f 46/94/41 39/95/33 38/96/34
f 48/97/42 39/98/33 47/99/43
f 42/100/37 40/101/35 48/102/42
f 49/103/44 42/104/37 50/105/45
f 49/106/44 43/107/38 41/108/36
f 51/109/46 44/110/39 43/111/38
f 53/112/47 44/113/39 52/114/48
f 53/115/47 46/116/41 45/117/40
f 54/118/49 47/119/43 46/120/41
f 55/121/50 48/122/42 47/123/43
f 50/124/45 48/125/42 56/126/51
f 4/127/52 50/128/45 2/129/16
f 6/130/53 49/131/44 4/132/52
f 8/133/54 51/134/46 6/135/53
f 10/136/15 52/137/48 8/138/54
f 10/139/15 54/140/49 53/141/47
f 14/142/14 54/143/49 12/144/55
f 16/145/56 55/146/50 14/147/14
f 16/148/56 50/149/45 56/150/51
f 18/1/1 17/151/4 3/2/2
f 17/4/4 19/152/6 5/5/5
f 19/7/6 20/153/8 7/8/7
f 20/10/8 21/154/10 9/11/9
f 21/13/10 22/155/12 11/14/11
f 22/16/12 23/156/27 13/17/13
f 6/157/53 4/158/52 2/21/16
f 2/21/16 16/159/56 14/19/14
f 14/19/14 12/160/55 10/20/15
f 10/20/15 8/161/54 6/157/53
f 6/157/53 2/21/16 10/20/15
f 13/22/13 23/162/27 24/23/17
f 24/25/17 18/163/1 1/26/3
f 15/30/18 1/164/3 3/165/2
f 3/165/2 5/166/5 15/30/18
f 7/28/7 9/167/9 11/168/11
f 11/168/11 13/29/13 7/28/7
f 15/30/18 5/166/5 7/28/7
f 25/31/19 17/169/4 18/32/1
f 27/34/21 19/170/6 17/35/4
f 28/37/22 20/171/8 19/38/6
f 28/40/22 29/172/24 21/41/10
f 30/43/23 22/173/12 21/44/10
f 31/46/25 23/174/27 22/47/12
f 32/49/26 24/175/17 23/50/27
f 26/52/20 18/176/1 24/53/17
f 34/55/28 33/177/30 25/56/19
f 35/58/29 27/178/21 25/59/19
f 36/61/31 28/179/22 27/62/21
f 37/64/32 29/180/24 28/65/22
f 37/67/32 38/181/34 30/68/23
f 39/70/33 31/182/25 30/71/23
f 40/73/35 32/183/26 31/74/25
f 34/76/28 26/184/20 32/77/26
f 41/79/36 33/185/30 34/80/28
f 43/82/38 35/186/29 33/83/30
f 44/85/39 36/187/31 35/86/29
f 45/88/40 37/188/32 36/89/31
f 46/91/41 38/189/34 37/92/32
f 46/94/41 47/190/43 39/95/33
f 48/97/42 40/191/35 39/98/33
f 42/100/37 34/192/28 40/101/35
f 49/103/44 41/193/36 42/104/37
f 49/106/44 51/194/46 43/107/38
f 51/109/46 52/195/48 44/110/39
f 53/112/47 45/196/40 44/113/39
f 53/115/47 54/197/49 46/116/41
f 54/118/49 55/198/50 47/119/43
f 55/121/50 56/199/51 48/122/42
f 50/124/45 42/200/37 48/125/42
f 4/127/52 49/201/44 50/128/45
f 6/130/53 51/202/46 49/131/44
f 8/133/54 52/203/48 51/134/46
f 10/136/15 53/204/47 52/137/48
f 10/139/15 12/205/55 54/140/49
f 14/142/14 55/206/50 54/143/49
f 16/145/56 56/207/51 55/146/50
f 16/148/56 2/208/16 50/149/45
